<?xml version="1.0" standalone="no"?>
<!DOCTYPE svg PUBLIC "-//W3C//DTD SVG 20010904//EN"
 "http://www.w3.org/TR/2001/REC-SVG-20010904/DTD/svg10.dtd">
<svg version="1.0" xmlns="http://www.w3.org/2000/svg"
 width="300.000000pt" height="300.000000pt" viewBox="0 0 300.000000 300.000000"
 preserveAspectRatio="xMidYMid meet">
<metadata>
Created by potrace 1.10, written by Peter Selinger 2001-2011
</metadata>
<g transform="translate(0.000000,300.000000) scale(0.100000,-0.100000)"
fill="#000000" stroke="none">
<path d="M1978 2185 c-15 -9 -32 -24 -38 -35 -6 -12 -10 -185 -10 -482 l0
-464 -463 463 -462 463 -43 0 c-59 0 -92 -33 -92 -92 l0 -43 463 -462 463
-463 -464 0 c-299 0 -470 -4 -483 -10 -28 -16 -51 -67 -44 -99 3 -16 17 -39
31 -52 l26 -24 599 0 599 0 27 28 28 27 0 600 0 600 -25 25 c-32 31 -77 40
-112 20z m80 -47 c17 -17 17 -1179 0 -1196 -17 -17 -1179 -17 -1196 0 -19 19
-15 66 7 78 13 6 175 10 460 10 241 0 447 3 455 6 27 10 38 41 25 67 -6 12
-211 222 -455 467 -309 310 -444 452 -444 467 0 28 25 53 53 53 15 0 161 -140
477 -455 251 -250 463 -455 472 -455 9 0 26 12 37 26 21 26 21 37 21 470 0
389 2 444 16 458 18 19 55 21 72 4z"/>
</g>
</svg>
