<?xml version="1.0" standalone="no"?>
<!DOCTYPE svg PUBLIC "-//W3C//DTD SVG 20010904//EN"
 "http://www.w3.org/TR/2001/REC-SVG-20010904/DTD/svg10.dtd">
<svg version="1.0" xmlns="http://www.w3.org/2000/svg"
 width="300.000000pt" height="300.000000pt" viewBox="0 0 300.000000 300.000000"
 preserveAspectRatio="xMidYMid meet">
<metadata>
Created by potrace 1.10, written by Peter Selinger 2001-2011
</metadata>
<g transform="translate(0.000000,300.000000) scale(0.100000,-0.100000)"
fill="#000000" stroke="none">
<path d="M2700 2825 l-174 -174 -35 31 c-48 43 -144 85 -232 104 -137 29 -290
0 -410 -77 -39 -26 -159 -136 -309 -285 l-245 -243 443 -443 443 -443 243 245
c149 150 259 270 285 309 77 121 106 273 77 411 -18 86 -73 204 -111 240 l-26
24 176 176 175 175 -63 63 -62 62 -175 -175z m230 51 c0 -5 -67 -77 -149 -160
-81 -83 -151 -161 -155 -174 -6 -18 2 -38 34 -88 114 -173 127 -363 38 -544
-26 -55 -68 -102 -266 -302 -130 -131 -243 -238 -251 -238 -21 0 -811 790
-811 810 0 26 457 472 520 507 83 47 162 66 265 66 113 -1 195 -26 294 -89
l73 -47 32 17 c18 10 97 82 176 161 l144 145 28 -27 c15 -15 28 -31 28 -37z"/>
<path d="M2013 2641 c-81 -30 -125 -66 -315 -258 -132 -132 -178 -186 -178
-203 0 -36 624 -660 660 -660 20 0 68 43 217 193 167 167 196 201 225 262 31
65 33 77 33 175 0 98 -2 110 -33 174 -45 96 -196 250 -291 297 -59 30 -76 34
-166 36 -78 2 -111 -1 -152 -16z m303 -56 c81 -39 230 -188 270 -270 26 -55
29 -69 29 -165 0 -157 -13 -179 -246 -415 l-188 -190 -318 317 -318 318 165
166 c251 251 294 277 456 271 75 -2 100 -8 150 -32z"/>
<path d="M1123 1638 l-119 -119 -92 93 -92 93 -244 -245 c-149 -150 -259 -270
-285 -309 -77 -120 -106 -273 -77 -410 19 -88 61 -184 104 -232 l31 -35 -174
-174 -175 -175 62 -62 63 -63 175 175 176 176 24 -26 c36 -38 154 -93 240
-111 138 -29 290 0 411 77 39 26 159 136 309 285 l245 244 -93 92 -93 92 119
119 119 119 -61 63 -61 62 -120 -119 -121 -119 -132 133 -133 132 119 121 119
120 -62 61 -63 61 -119 -119z m154 30 c13 -12 23 -26 23 -31 0 -5 -45 -56
-100 -113 -75 -78 -100 -111 -100 -131 0 -39 254 -293 293 -293 22 0 50 22
131 100 57 55 107 100 111 100 12 0 55 -42 55 -53 0 -5 -45 -56 -100 -113 -72
-75 -100 -111 -100 -129 0 -17 22 -48 70 -99 39 -40 70 -80 70 -88 0 -8 -107
-120 -237 -249 -198 -195 -249 -240 -303 -267 -176 -88 -367 -76 -538 33 -54
36 -77 45 -94 39 -13 -4 -93 -76 -179 -160 l-155 -154 -31 33 -32 32 154 156
c84 86 156 166 160 178 5 16 -4 38 -34 84 -56 87 -78 142 -92 227 -18 120 5
241 68 349 30 54 480 511 502 511 8 0 47 -31 87 -70 53 -51 79 -70 99 -70 20
0 51 24 128 100 56 55 106 100 111 100 6 0 20 -10 33 -22z"/>
<path d="M617 1303 c-190 -189 -235 -246 -261 -333 -33 -110 -12 -257 47 -346
53 -77 199 -214 262 -245 111 -54 251 -55 363 -3 45 22 97 66 255 223 149 149
197 202 197 221 0 35 -624 660 -659 660 -19 0 -69 -44 -204 -177z m523 -168
l315 -316 -190 -188 c-236 -233 -258 -246 -415 -246 -96 0 -110 3 -165 29 -82
40 -231 189 -271 271 -26 55 -29 69 -29 165 0 157 13 179 243 413 102 103 188
187 191 187 3 0 148 -142 321 -315z"/>
</g>
</svg>
