<?xml version="1.0" standalone="no"?>
<!DOCTYPE svg PUBLIC "-//W3C//DTD SVG 20010904//EN"
 "http://www.w3.org/TR/2001/REC-SVG-20010904/DTD/svg10.dtd">
<svg version="1.0" xmlns="http://www.w3.org/2000/svg"
 width="300.000000pt" height="300.000000pt" viewBox="0 0 300.000000 300.000000"
 preserveAspectRatio="xMidYMid meet">
<metadata>
Created by potrace 1.10, written by Peter Selinger 2001-2011
</metadata>
<g transform="translate(0.000000,300.000000) scale(0.100000,-0.100000)"
fill="#000000" stroke="none">
<path d="M1400 2977 c-43 -20 -85 -54 -100 -81 -13 -26 -13 -26 -149 -26 -157
0 -187 -10 -236 -76 l-30 -42 -191 -3 c-188 -4 -191 -4 -232 -32 -23 -15 -51
-45 -62 -67 -20 -39 -20 -55 -20 -1277 l0 -1238 23 -39 c29 -52 64 -76 118
-82 44 -5 44 -5 23 13 -12 10 -36 26 -53 35 -17 9 -40 32 -51 50 -20 33 -20
47 -20 1263 0 1202 1 1231 20 1262 36 60 64 68 267 71 l183 4 42 45 c65 68 80
73 222 73 l125 0 55 48 c30 26 79 60 110 76 l56 28 56 -28 c31 -16 80 -50 110
-76 l55 -48 125 0 c142 0 157 -5 221 -73 l42 -45 183 -4 c162 -3 187 -5 218
-23 75 -44 70 53 70 -1310 0 -1363 5 -1264 -70 -1312 -19 -12 -44 -29 -55 -38
-19 -15 -18 -16 24 -11 54 6 89 30 118 82 l23 39 0 1238 c0 1222 0 1238 -20
1277 -11 22 -39 52 -62 67 -41 28 -44 28 -232 32 l-191 3 -30 42 c-49 67 -78
76 -237 76 -82 0 -138 4 -138 10 0 17 -70 80 -107 95 -42 18 -166 19 -203 2z"/>
<path d="M1453 2908 c-18 -6 -55 -35 -83 -64 l-49 -54 -143 0 c-157 0 -175 -5
-203 -60 -23 -45 -19 -97 10 -125 l24 -25 491 0 491 0 24 25 c43 42 22 144
-35 175 -10 6 -82 10 -160 10 l-141 0 -49 53 c-32 35 -64 58 -89 65 -44 14
-45 14 -88 0z m113 -53 c12 -8 35 -34 51 -57 l29 -43 163 -5 c185 -6 191 -8
191 -87 l0 -43 -500 0 -500 0 0 43 c0 79 6 81 191 87 l162 5 32 45 c52 75 119
96 181 55z"/>
<path d="M535 2660 c-11 -4 -31 -20 -45 -35 l-25 -27 -3 -1219 -2 -1219 34
-38 34 -37 972 0 972 0 34 37 34 38 -2 1220 -3 1220 -33 32 -32 33 -169 3
-168 3 -27 -31 c-14 -17 -26 -42 -26 -54 0 -12 -5 -27 -12 -34 -18 -18 -1121
-17 -1135 1 -6 6 -13 26 -17 42 -4 17 -17 40 -28 53 -21 21 -28 22 -177 21
-86 0 -165 -4 -176 -9z m345 -79 c0 -86 -38 -81 620 -81 658 0 620 -5 620 81
l0 50 169 -3 c149 -3 171 -5 190 -22 l21 -19 0 -1213 0 -1213 -26 -20 c-27
-21 -31 -21 -974 -21 -943 0 -947 0 -974 21 l-26 20 0 1213 c0 1143 1 1214 18
1228 28 25 40 26 205 27 l157 1 0 -49z"/>
</g>
</svg>
