<?xml version="1.0" standalone="no"?>
<!DOCTYPE svg PUBLIC "-//W3C//DTD SVG 20010904//EN"
 "http://www.w3.org/TR/2001/REC-SVG-20010904/DTD/svg10.dtd">
<svg version="1.0" xmlns="http://www.w3.org/2000/svg"
 width="300.000000pt" height="300.000000pt" viewBox="0 0 300.000000 300.000000"
 preserveAspectRatio="xMidYMid meet">
<metadata>
Created by potrace 1.10, written by Peter Selinger 2001-2011
</metadata>
<g transform="translate(0.000000,300.000000) scale(0.100000,-0.100000)"
fill="#000000" stroke="none">
<path d="M1383 2706 c-259 -60 -442 -286 -443 -548 0 -137 51 -274 140 -371
l50 -54 -188 -306 c-173 -283 -189 -306 -215 -307 -39 0 -102 -34 -126 -68
-112 -157 51 -362 224 -283 50 22 91 69 105 119 13 49 13 66 -4 106 -12 29
-12 37 0 54 62 89 424 690 424 704 0 33 -28 75 -64 97 -77 48 -139 147 -155
251 -26 163 62 326 217 398 49 23 70 27 152 27 82 0 103 -4 152 -27 71 -33
147 -103 177 -162 43 -88 108 -111 162 -57 38 38 38 77 -2 150 -61 115 -191
222 -318 262 -86 26 -208 33 -288 15z m241 -47 c124 -24 274 -136 330 -246 32
-65 33 -88 2 -108 -35 -23 -55 -9 -111 74 -48 74 -110 126 -192 163 -40 19
-66 23 -153 23 -99 0 -109 -2 -173 -33 -87 -43 -161 -117 -201 -201 -29 -61
-31 -74 -31 -176 0 -99 3 -116 27 -168 19 -39 53 -84 103 -133 54 -54 75 -82
75 -100 0 -16 -81 -158 -207 -362 l-208 -337 3 -87 c3 -84 2 -87 -28 -121 -58
-66 -140 -72 -205 -16 -89 78 -57 210 59 244 29 9 62 26 74 38 21 23 320 505
353 569 10 21 19 43 19 51 0 8 -23 42 -50 77 -91 112 -130 217 -130 345 0 260
186 477 442 514 65 9 118 7 202 -10z"/>
<path d="M1408 2317 c-105 -64 -126 -192 -45 -284 33 -38 81 -63 119 -63 19 0
58 -56 241 -354 175 -285 223 -356 247 -366 32 -13 34 -13 149 35 55 23 75 26
145 23 110 -5 187 -40 260 -119 129 -139 134 -342 12 -492 -57 -70 -163 -125
-259 -134 -84 -7 -117 -34 -117 -95 0 -62 33 -88 112 -88 138 0 264 56 374
165 220 218 219 566 -2 790 -140 143 -377 201 -559 139 -26 -8 -48 -14 -49
-12 -1 2 -84 137 -185 301 l-182 297 12 54 c27 121 -57 226 -181 226 -39 0
-65 -6 -92 -23z m159 -34 c58 -27 75 -65 70 -153 -4 -64 -1 -81 19 -120 54
-104 341 -555 364 -572 23 -16 29 -17 80 -3 193 52 382 4 516 -130 133 -132
185 -327 136 -506 -48 -173 -196 -319 -367 -364 -112 -29 -185 -15 -185 34 0
30 32 48 95 55 132 15 268 112 328 235 30 62 32 72 32 176 0 105 -2 113 -34
180 -44 89 -113 157 -199 198 -62 30 -75 32 -172 32 -94 0 -111 -3 -166 -28
-107 -49 -89 -66 -320 307 -112 181 -215 342 -230 357 -14 15 -41 30 -60 34
-47 8 -101 59 -114 104 -17 65 14 136 72 164 43 21 91 21 135 0z"/>
<path d="M306 1277 c-17 -18 -43 -58 -58 -89 -108 -220 -66 -473 106 -643 116
-115 235 -165 396 -165 150 0 273 47 381 148 73 67 117 136 150 235 l27 78
388 -1 389 0 30 -30 c61 -59 138 -74 210 -41 141 63 149 263 15 331 -77 39
-196 16 -236 -45 l-16 -25 -444 0 c-303 0 -451 -3 -467 -11 -32 -15 -44 -40
-56 -122 -20 -139 -87 -234 -209 -294 -70 -35 -83 -38 -163 -38 -81 0 -91 2
-165 40 -135 69 -206 185 -206 335 1 84 18 141 62 210 38 60 38 93 1 131 -42
42 -93 40 -135 -4z m104 -27 c22 -22 23 -20 -36 -145 -26 -55 -29 -70 -29
-170 0 -104 2 -114 32 -176 41 -83 120 -159 210 -202 62 -29 77 -32 164 -32
90 0 99 2 171 38 133 65 215 178 238 324 17 111 -19 103 490 103 l438 0 43 36
c69 57 117 68 184 40 48 -20 75 -68 75 -133 0 -44 -5 -58 -30 -87 -61 -69
-137 -71 -216 -6 -36 30 -59 40 -98 45 -28 4 -205 5 -393 3 -395 -4 -374 2
-407 -108 -35 -117 -138 -242 -247 -300 -297 -158 -670 3 -754 325 -18 73 -19
193 -1 260 28 107 91 205 132 205 8 0 23 -9 34 -20z"/>
</g>
</svg>
